<svg width="143" height="186" viewBox="0 0 143 186" fill="none" xmlns="http://www.w3.org/2000/svg">
<g clip-path="url(#clip0)">
<path d="M49.9998 93.2398C0.983582 93.2398 -38.8954 133.119 -38.8954 182.135C-38.8954 184.268 -37.1637 186 -35.0303 186C-32.8968 186 -31.1651 184.268 -31.1651 182.135C-31.1651 137.378 5.2433 100.97 50.0002 100.97C94.757 100.97 131.165 137.378 131.165 182.135C131.165 184.268 132.897 186 135.031 186C137.164 186 138.896 184.268 138.896 182.135C138.895 133.111 99.016 93.2398 49.9998 93.2398Z" fill="#79A2CC"/>
<path d="M49.9998 0C26.5622 0 7.48474 19.0699 7.48474 42.515C7.48474 65.9602 26.5626 85.03 49.9998 85.03C73.437 85.03 92.5148 65.9602 92.5148 42.515C92.5148 19.0699 73.4373 0 49.9998 0ZM49.9998 77.3001C30.8216 77.3001 15.2146 61.6932 15.2146 42.515C15.2146 23.3368 30.8216 7.72991 49.9998 7.72991C69.178 7.72991 84.7849 23.3368 84.7849 42.515C84.7849 61.6932 69.178 77.3001 49.9998 77.3001Z" fill="#79A2CC"/>
</g>
<defs>
<clipPath id="clip0">
<rect width="186" height="186" fill="white" transform="translate(-43)"/>
</clipPath>
</defs>
</svg>
