<svg width="143" height="172" viewBox="0 0 143 172" fill="none" xmlns="http://www.w3.org/2000/svg">
<path d="M139.6 21.406H126V4.40598C126.007 2.52833 124.49 1.00045 122.612 0.994076C122.512 0.993651 122.413 0.997901 122.314 1.00598L113.444 1.75397C91.9324 3.53302 70.8337 8.67765 50.9178 16.9996L41 21.1238L31.0924 17.0132C11.1744 8.68998 -9.9269 3.5445 -31.4404 1.76418L-40.3144 1.00598C-42.1857 0.848301 -43.8304 2.2372 -43.9881 4.10848C-43.9966 4.2075 -44.0004 4.30695 -44 4.40598V21.406H-57.6C-59.4777 21.406 -61 22.9283 -61 24.806V167.606C-61 169.484 -59.4777 171.006 -57.6 171.006H139.6C141.478 171.006 143 169.484 143 167.606V24.806C143 22.9283 141.478 21.406 139.6 21.406ZM-54.2 164.213V28.206H-44V147.206C-44.0064 148.977 -42.6532 150.456 -40.889 150.606L-31.7396 151.388C-29.2461 151.597 -26.7531 151.854 -24.2596 152.16C-23.4266 152.258 -22.6004 152.391 -21.7674 152.5C-20.1184 152.721 -18.4694 152.942 -16.8272 153.204C-15.848 153.36 -14.8722 153.544 -13.8964 153.717C-12.4072 153.979 -10.918 154.241 -9.4356 154.533C-8.4156 154.737 -7.3956 154.961 -6.3756 155.182C-4.9442 155.488 -3.5128 155.801 -2.0882 156.141C-1.0682 156.386 -0.0312004 156.648 0.995598 156.91C2.3998 157.27 3.8006 157.637 5.198 158.025C6.218 158.31 7.23801 158.61 8.258 158.909C9.6452 159.319 11.029 159.745 12.4094 160.187C13.4205 160.509 14.429 160.84 15.4354 161.18C16.826 161.646 18.2064 162.135 19.5868 162.635C20.566 162.975 21.5486 163.346 22.521 163.716C22.9426 163.876 23.3608 164.056 23.779 164.213H-54.2ZM37.6 162.506L31.3304 159.888C11.4277 151.549 -9.66085 146.387 -31.165 144.588L-37.2 144.085V8.10518L-32.0116 8.54038C-11.201 10.2599 9.21043 15.2358 28.4778 23.2862L37.6 27.0738V162.506ZM44.4 162.506V27.0738L53.5324 23.2828C72.7964 15.2341 93.2045 10.2595 114.012 8.54038L119.2 8.10518V144.075L113.614 144.53C92.0965 146.316 70.9893 151.449 51.0538 159.742L44.4 162.506ZM136.2 164.206H58.272C58.7378 164.026 59.2002 163.835 59.666 163.659C60.686 163.268 61.706 162.897 62.7498 162.526C64.0826 162.044 65.4209 161.576 66.7652 161.122C67.8124 160.782 68.8664 160.442 69.917 160.102C71.26 159.674 72.6098 159.266 73.9596 158.865C75.0204 158.552 76.0846 158.242 77.1488 157.95C78.5088 157.569 79.8688 157.212 81.2628 156.862C82.3168 156.593 83.3742 156.325 84.435 156.073C85.8494 155.733 87.274 155.427 88.6986 155.125C89.7186 154.904 90.7386 154.676 91.779 154.472C93.275 154.176 94.7778 153.914 96.2772 153.652C97.2496 153.482 98.2186 153.312 99.1944 153.142C100.871 152.877 102.55 152.649 104.233 152.425C105.039 152.32 105.845 152.19 106.654 152.085C109.147 151.784 111.653 151.526 114.171 151.313L122.879 150.606C124.647 150.461 126.006 148.98 126 147.206V28.206H136.2V164.206Z" fill="#79A2CC"/>
</svg>
