<svg width="150" height="186" viewBox="0 0 150 186" fill="none" xmlns="http://www.w3.org/2000/svg">
<path d="M20.6095 145.785C9.65429 145.785 0.773804 154.666 0.773804 165.621C0.773804 176.576 9.65471 185.457 20.6095 185.457C31.5646 185.457 40.4451 176.576 40.4451 165.621C40.4455 154.666 31.5646 145.785 20.6095 145.785ZM20.6095 176.641C14.5233 176.641 9.58974 171.707 9.58974 165.621C9.58974 159.535 14.5233 154.602 20.6095 154.602C26.6956 154.602 31.6292 159.535 31.6292 165.621C31.6296 171.707 26.6956 176.641 20.6095 176.641Z" fill="#79A2CC"/>
<path d="M104.361 145.785C93.4056 145.785 84.5251 154.666 84.5251 165.621C84.5251 176.576 93.4061 185.457 104.361 185.457C115.316 185.457 124.196 176.576 124.196 165.621C124.196 154.666 115.316 145.785 104.361 145.785ZM104.361 176.641C98.2747 176.641 93.3411 171.707 93.3411 165.621C93.3411 159.535 98.2747 154.602 104.361 154.602C110.447 154.602 115.381 159.535 115.381 165.621C115.381 171.707 110.447 176.641 104.361 176.641Z" fill="#79A2CC"/>
<path d="M149.102 30.0766C148.184 29.0739 146.928 28.4461 145.575 28.3133L2.09615 26.3297L-1.87098 14.2077C-4.66578 6.10425 -12.2541 0.633622 -20.8254 0.542923H-35.592C-38.0266 0.542923 -40 2.51636 -40 4.95089C-40 7.38542 -38.0266 9.35886 -35.592 9.35886H-20.8254C-16.0327 9.46475 -11.8124 12.5422 -10.2461 17.0729L17.7445 101.485L15.5407 106.554C13.0825 112.893 13.8208 120.028 17.5243 125.729C21.1923 131.329 27.3632 134.785 34.0543 134.986H119.789C122.224 134.986 124.197 133.012 124.197 130.578C124.197 128.143 122.224 126.17 119.789 126.17H34.0538C30.2753 126.075 26.7971 124.088 24.7971 120.88C22.8194 117.712 22.4131 113.809 23.6952 110.301L25.4585 106.334L118.246 96.6362C128.438 95.5136 136.822 88.1008 139.184 78.1226L149.763 33.8227C150.24 32.547 149.987 31.1123 149.102 30.0766ZM130.588 76.1395C129.157 82.5626 123.704 87.3005 117.144 87.8206L25.4585 97.2976L4.96139 35.1456L140.065 37.1292L130.588 76.1395Z" fill="#79A2CC"/>
</svg>
