<svg width="152" height="218" viewBox="0 0 152 218" fill="none" xmlns="http://www.w3.org/2000/svg">
<path d="M43 121.691C42.5649 121.688 42.1362 121.587 41.745 121.397L-58.4172 74.2438C-58.9233 74.0059 -59.3512 73.6288 -59.6509 73.1567C-59.9507 72.6846 -60.1099 72.1369 -60.1099 71.5777C-60.1099 71.0185 -59.9507 70.4708 -59.6509 69.9987C-59.3512 69.5265 -58.9233 69.1495 -58.4172 68.9116L41.745 21.7558C42.1376 21.571 42.5661 21.4751 43 21.4751C43.4339 21.4751 43.8624 21.571 44.2549 21.7558L144.417 68.9116C144.923 69.1495 145.351 69.5265 145.651 69.9987C145.951 70.4708 146.11 71.0185 146.11 71.5777C146.11 72.1369 145.951 72.6846 145.651 73.1567C145.351 73.6288 144.923 74.0059 144.417 74.2438L44.2549 121.397C43.8638 121.587 43.435 121.688 43 121.691ZM-50.2451 71.5865L43 115.481L136.245 71.5865L43 27.6919L-50.2451 71.5865Z" fill="#79A2CC"/>
<path d="M42.3372 151.127C19.6534 151.127 -3.03038 144.593 -25.558 131.528C-26.0054 131.269 -26.377 130.898 -26.6356 130.451C-26.8941 130.003 -27.0305 129.496 -27.031 128.979V87.147C-27.031 86.3657 -26.7206 85.6164 -26.1682 85.0639C-25.6157 84.5114 -24.8664 84.201 -24.0851 84.201C-23.3037 84.201 -22.5544 84.5114 -22.002 85.0639C-21.4495 85.6164 -21.1391 86.3657 -21.1391 87.147V127.271C20.9879 151.133 63.6776 151.133 105.802 127.271V87.7892C105.802 87.0079 106.112 86.2586 106.665 85.7061C107.217 85.1536 107.966 84.8433 108.748 84.8433C109.529 84.8433 110.278 85.1536 110.831 85.7061C111.383 86.2586 111.694 87.0079 111.694 87.7892V128.985C111.693 129.502 111.557 130.009 111.298 130.457C111.04 130.904 110.668 131.275 110.221 131.534C87.7077 144.596 65.018 151.127 42.3372 151.127Z" fill="#79A2CC"/>
<path d="M127.157 138.495C126.375 138.495 125.626 138.184 125.074 137.632C124.521 137.079 124.211 136.33 124.211 135.549V79.1222C124.211 78.3409 124.521 77.5916 125.074 77.0391C125.626 76.4866 126.375 76.1763 127.157 76.1763C127.938 76.1763 128.687 76.4866 129.24 77.0391C129.792 77.5916 130.103 78.3409 130.103 79.1222V135.549C130.103 136.33 129.792 137.079 129.24 137.632C128.687 138.184 127.938 138.495 127.157 138.495Z" fill="#79A2CC"/>
<path d="M127.157 158.244C124.621 158.244 122.142 157.493 120.034 156.084C117.926 154.675 116.282 152.673 115.312 150.33C114.342 147.987 114.088 145.409 114.582 142.922C115.077 140.435 116.298 138.151 118.091 136.358C119.884 134.565 122.169 133.344 124.656 132.849C127.143 132.355 129.72 132.608 132.063 133.579C134.406 134.549 136.408 136.193 137.817 138.301C139.226 140.409 139.978 142.888 139.978 145.424C139.974 148.823 138.622 152.082 136.218 154.485C133.815 156.889 130.556 158.241 127.157 158.244ZM127.157 138.507C125.786 138.507 124.447 138.913 123.307 139.674C122.168 140.436 121.28 141.518 120.755 142.784C120.231 144.05 120.094 145.443 120.361 146.787C120.628 148.131 121.288 149.366 122.257 150.335C123.226 151.304 124.461 151.964 125.805 152.231C127.149 152.499 128.542 152.361 129.808 151.837C131.074 151.312 132.157 150.424 132.918 149.285C133.679 148.146 134.086 146.806 134.086 145.435C134.086 143.597 133.357 141.832 132.058 140.531C130.759 139.23 128.996 138.497 127.157 138.495V138.507Z" fill="#79A2CC"/>
<path d="M127.493 184.731C122.911 184.665 118.402 183.579 114.292 181.553C113.705 181.276 113.226 180.812 112.929 180.235C112.632 179.657 112.534 178.998 112.651 178.359L117.45 152.026C117.512 151.638 117.65 151.267 117.858 150.933C118.065 150.6 118.337 150.312 118.657 150.085C118.977 149.858 119.34 149.698 119.723 149.613C120.106 149.528 120.502 149.521 120.888 149.591C121.274 149.662 121.642 149.808 121.971 150.023C122.299 150.238 122.582 150.516 122.801 150.841C123.021 151.167 123.173 151.532 123.249 151.917C123.325 152.302 123.324 152.699 123.245 153.083L118.867 177.113C121.489 178.24 124.31 178.827 127.163 178.841C130.017 178.856 132.844 178.296 135.476 177.196L131.084 153.083C130.944 152.314 131.115 151.521 131.559 150.879C132.003 150.236 132.685 149.796 133.454 149.656C134.223 149.515 135.016 149.686 135.659 150.131C136.301 150.575 136.741 151.257 136.881 152.026L141.68 178.359C141.793 178.976 141.706 179.612 141.432 180.176C141.158 180.74 140.712 181.201 140.157 181.494C136.267 183.601 131.917 184.713 127.493 184.731Z" fill="#79A2CC"/>
</svg>
