<svg width="88" height="30" viewBox="0 0 88 30" fill="none" xmlns="http://www.w3.org/2000/svg">
<path fill-rule="evenodd" clip-rule="evenodd" d="M22.2913 11.5311H12.5461C12.371 11.5317 12.2032 11.6014 12.0794 11.725C11.9556 11.8487 11.8858 12.0162 11.8852 12.1911C11.8858 12.366 11.9556 12.5335 12.0794 12.6572C12.2032 12.7808 12.371 12.8505 12.5461 12.8511H22.2913V11.5311Z" fill="#1CA3D6"/>
<path fill-rule="evenodd" clip-rule="evenodd" d="M24.75 8.59851H12.5845C11.6407 8.60086 10.7362 8.9763 10.0688 9.64273C9.40142 10.3092 9.02545 11.2124 9.0231 12.1549C9.02545 13.0973 9.40142 14.0005 10.0688 14.667C10.7362 15.3334 11.6407 15.7088 12.5845 15.7112H24.75V14.197H12.5845C12.0481 14.1872 11.5371 13.9676 11.1612 13.5853C10.7854 13.2031 10.5748 12.6888 10.5748 12.1531C10.5748 11.6175 10.7854 11.1032 11.1612 10.7209C11.5371 10.3387 12.0481 10.1191 12.5845 10.1093H24.75V8.59851Z" fill="#124F75"/>
<path fill-rule="evenodd" clip-rule="evenodd" d="M24.75 14.197H7.84921C6.9054 14.1994 6.00092 14.5748 5.33354 15.2412C4.66616 15.9077 4.29019 16.8109 4.28784 17.7534C4.29019 18.6958 4.66616 19.599 5.33354 20.2655C6.00092 20.9319 6.9054 21.3074 7.84921 21.3097H20.1209L24.75 27.1079V19.7955H7.84921C7.31286 19.7857 6.80179 19.5661 6.42596 19.1838C6.05012 18.8016 5.83955 18.2873 5.83955 17.7516C5.83955 17.216 6.05012 16.7017 6.42596 16.3195C6.80179 15.9372 7.31286 15.7176 7.84921 15.7078H24.75V14.197Z" fill="#124F75"/>
<path fill-rule="evenodd" clip-rule="evenodd" d="M22.2913 17.1296H7.80813C7.63396 17.1311 7.46735 17.2009 7.34432 17.324C7.22129 17.4471 7.15172 17.6136 7.15064 17.7876C7.15119 17.9624 7.22099 18.13 7.34482 18.2536C7.46865 18.3773 7.63643 18.447 7.81155 18.4475H22.2913V17.1296Z" fill="#1CA3D6"/>
<path fill-rule="evenodd" clip-rule="evenodd" d="M24.75 3H7.84921C6.9054 3.00235 6.00092 3.37779 5.33354 4.04422C4.66616 4.71066 4.29019 5.61386 4.28784 6.55634C4.29019 7.49882 4.66616 8.40202 5.33354 9.06846C6.00092 9.73489 6.9054 10.1103 7.84921 10.1127H24.75V8.5985H7.84921C7.31286 8.5887 6.80179 8.36906 6.42596 7.98683C6.05012 7.60459 5.83955 7.09031 5.83955 6.55463C5.83955 6.01895 6.05012 5.50467 6.42596 5.12243C6.80179 4.7402 7.31286 4.52056 7.84921 4.51076H24.75V3Z" fill="#124F75"/>
<path fill-rule="evenodd" clip-rule="evenodd" d="M22.2913 5.93201H7.80814C7.63302 5.93255 7.46523 6.00226 7.34141 6.12591C7.21758 6.24956 7.14777 6.41711 7.14723 6.59198C7.14686 6.76744 7.21627 6.93587 7.3402 7.06027C7.46412 7.18466 7.63243 7.25483 7.80814 7.25538H22.2913V5.93201Z" fill="#1CA3D6"/>
<path d="M44.4 19.68C43.68 20.16 42.856 20.552 41.928 20.856C41 21.144 39.984 21.288 38.88 21.288C37.552 21.288 36.408 21.072 35.448 20.64C34.488 20.208 33.688 19.624 33.048 18.888C32.424 18.152 31.96 17.304 31.656 16.344C31.352 15.368 31.2 14.336 31.2 13.248C31.2 12.112 31.368 11.048 31.704 10.056C32.04 9.064 32.536 8.2 33.192 7.464C33.864 6.712 34.696 6.12 35.688 5.688C36.68 5.256 37.84 5.04 39.168 5.04C40.064 5.04 40.952 5.136 41.832 5.328C42.712 5.504 43.496 5.752 44.184 6.072L43.416 8.568C42.872 8.248 42.24 7.976 41.52 7.752C40.8 7.512 39.984 7.392 39.072 7.392C38.16 7.392 37.384 7.528 36.744 7.8C36.12 8.056 35.616 8.432 35.232 8.928C34.848 9.424 34.568 10.024 34.392 10.728C34.216 11.416 34.128 12.2 34.128 13.08C34.128 16.984 35.784 18.936 39.096 18.936C39.688 18.936 40.16 18.888 40.512 18.792C40.864 18.696 41.24 18.584 41.64 18.456V14.472H44.4V19.68ZM50.6454 18.6H57.2454V21H47.8854V5.16H50.6454V18.6ZM66.3024 5.04C67.5504 5.04 68.6544 5.256 69.6144 5.688C70.5744 6.12 71.3824 6.712 72.0384 7.464C72.6944 8.2 73.1904 9.056 73.5264 10.032C73.8624 11.008 74.0304 12.032 74.0304 13.104C74.0304 14.16 73.8624 15.184 73.5264 16.176C73.2064 17.152 72.7104 18.024 72.0384 18.792C71.3824 19.544 70.5584 20.152 69.5664 20.616C68.5904 21.064 67.4464 21.288 66.1344 21.288C64.8544 21.288 63.7424 21.072 62.7984 20.64C61.8544 20.208 61.0704 19.624 60.4464 18.888C59.8224 18.152 59.3504 17.304 59.0304 16.344C58.7264 15.368 58.5744 14.344 58.5744 13.272C58.5744 12.136 58.7424 11.072 59.0784 10.08C59.4304 9.072 59.9344 8.2 60.5904 7.464C61.2464 6.712 62.0544 6.12 63.0144 5.688C63.9744 5.256 65.0704 5.04 66.3024 5.04ZM66.1824 18.936C67.0624 18.936 67.8064 18.792 68.4144 18.504C69.0384 18.2 69.5504 17.792 69.9504 17.28C70.3504 16.752 70.6384 16.136 70.8144 15.432C71.0064 14.728 71.1024 13.976 71.1024 13.176C71.1024 12.312 71.0064 11.528 70.8144 10.824C70.6224 10.12 70.3264 9.512 69.9264 9C69.5264 8.488 69.0144 8.096 68.3904 7.824C67.7824 7.536 67.0624 7.392 66.2304 7.392C65.3824 7.392 64.6544 7.536 64.0464 7.824C63.4544 8.096 62.9664 8.48 62.5824 8.976C62.2144 9.472 61.9424 10.064 61.7664 10.752C61.6064 11.44 61.5264 12.2 61.5264 13.032C61.5264 14.984 61.9264 16.456 62.7264 17.448C63.5264 18.44 64.6784 18.936 66.1824 18.936ZM84.8829 13.8H80.0829V18.6H86.9709V21H77.3229V5.16H86.4909V7.56H80.0829V11.4H84.8829V13.8Z" fill="#124F75"/>
</svg>
