<svg width="66" height="22" viewBox="0 0 66 22" fill="none" xmlns="http://www.w3.org/2000/svg">
<path fill-rule="evenodd" clip-rule="evenodd" d="M16.3469 8.45605H9.20048C9.07206 8.45645 8.94902 8.50757 8.85821 8.59825C8.7674 8.68893 8.71621 8.8118 8.71582 8.94004C8.71621 9.06827 8.7674 9.19115 8.85821 9.28182C8.94902 9.3725 9.07206 9.42362 9.20048 9.42402H16.3469V8.45605Z" fill="#1CA3D6"/>
<path fill-rule="evenodd" clip-rule="evenodd" d="M18.15 6.30554H9.22861C8.53648 6.30726 7.87319 6.58258 7.38378 7.0713C6.89437 7.56002 6.61866 8.22238 6.61694 8.91353C6.61866 9.60468 6.89437 10.267 7.38378 10.7557C7.87319 11.2445 8.53648 11.5198 9.22861 11.5215H18.15V10.4111H9.22861C8.83529 10.4039 8.4605 10.2429 8.18489 9.96255C7.90928 9.68225 7.75486 9.30511 7.75486 8.91227C7.75486 8.51944 7.90928 8.1423 8.18489 7.86199C8.4605 7.58169 8.83529 7.42062 9.22861 7.41343H18.15V6.30554Z" fill="#124F75"/>
<path fill-rule="evenodd" clip-rule="evenodd" d="M18.15 10.4111H5.75608C5.06395 10.4129 4.40067 10.6882 3.91125 11.1769C3.42184 11.6656 3.14613 12.328 3.14441 13.0191C3.14613 13.7103 3.42184 14.3726 3.91125 14.8613C4.40067 15.3501 5.06395 15.6254 5.75608 15.6271H14.7553L18.15 19.8791V14.5167H5.75608C5.36276 14.5095 4.98797 14.3484 4.71236 14.0681C4.43675 13.7878 4.28233 13.4107 4.28233 13.0179C4.28233 12.625 4.43675 12.2479 4.71236 11.9676C4.98797 11.6873 5.36276 11.5262 5.75608 11.519H18.15V10.4111Z" fill="#124F75"/>
<path fill-rule="evenodd" clip-rule="evenodd" d="M16.3469 12.5618H5.72594C5.59821 12.5628 5.47604 12.614 5.38581 12.7043C5.29559 12.7946 5.24457 12.9167 5.24378 13.0442C5.24418 13.1725 5.29537 13.2954 5.38618 13.386C5.47698 13.4767 5.60003 13.5278 5.72845 13.5282H16.3469V12.5618Z" fill="#1CA3D6"/>
<path fill-rule="evenodd" clip-rule="evenodd" d="M18.15 2.19995H5.75608C5.06395 2.20167 4.40067 2.47699 3.91125 2.96571C3.42184 3.45443 3.14613 4.11678 3.14441 4.80793C3.14613 5.49909 3.42184 6.16144 3.91125 6.65015C4.40067 7.13887 5.06395 7.4142 5.75608 7.41592H18.15V6.30552H5.75608C5.36276 6.29833 4.98797 6.13726 4.71236 5.85696C4.43675 5.57665 4.28233 5.19952 4.28233 4.80668C4.28233 4.41385 4.43675 4.03671 4.71236 3.7564C4.98797 3.4761 5.36276 3.31503 5.75608 3.30784H18.15V2.19995Z" fill="#124F75"/>
<path fill-rule="evenodd" clip-rule="evenodd" d="M16.3469 4.3501H5.72595C5.59753 4.35049 5.47448 4.40161 5.38367 4.49229C5.29287 4.58297 5.24168 4.70584 5.24128 4.83408C5.24101 4.96275 5.29191 5.08627 5.38279 5.17749C5.47367 5.26871 5.59709 5.32017 5.72595 5.32057H16.3469V4.3501Z" fill="#1CA3D6"/>
<path d="M32.8 15.01C32.26 15.37 31.642 15.664 30.946 15.892C30.25 16.108 29.488 16.216 28.66 16.216C27.664 16.216 26.806 16.054 26.086 15.73C25.366 15.406 24.766 14.968 24.286 14.416C23.818 13.864 23.47 13.228 23.242 12.508C23.014 11.776 22.9 11.002 22.9 10.186C22.9 9.334 23.026 8.536 23.278 7.792C23.53 7.048 23.902 6.4 24.394 5.848C24.898 5.284 25.522 4.84 26.266 4.516C27.01 4.192 27.88 4.03 28.876 4.03C29.548 4.03 30.214 4.102 30.874 4.246C31.534 4.378 32.122 4.564 32.638 4.804L32.062 6.676C31.654 6.436 31.18 6.232 30.64 6.064C30.1 5.884 29.488 5.794 28.804 5.794C28.12 5.794 27.538 5.896 27.058 6.1C26.59 6.292 26.212 6.574 25.924 6.946C25.636 7.318 25.426 7.768 25.294 8.296C25.162 8.812 25.096 9.4 25.096 10.06C25.096 12.988 26.338 14.452 28.822 14.452C29.266 14.452 29.62 14.416 29.884 14.344C30.148 14.272 30.43 14.188 30.73 14.092V11.104H32.8V15.01ZM37.4841 14.2H42.4341V16H35.4141V4.12H37.4841V14.2ZM49.2268 4.03C50.1628 4.03 50.9908 4.192 51.7108 4.516C52.4308 4.84 53.0368 5.284 53.5288 5.848C54.0208 6.4 54.3928 7.042 54.6448 7.774C54.8968 8.506 55.0228 9.274 55.0228 10.078C55.0228 10.87 54.8968 11.638 54.6448 12.382C54.4048 13.114 54.0328 13.768 53.5288 14.344C53.0368 14.908 52.4188 15.364 51.6748 15.712C50.9428 16.048 50.0848 16.216 49.1008 16.216C48.1408 16.216 47.3068 16.054 46.5988 15.73C45.8908 15.406 45.3028 14.968 44.8348 14.416C44.3668 13.864 44.0128 13.228 43.7728 12.508C43.5448 11.776 43.4308 11.008 43.4308 10.204C43.4308 9.352 43.5568 8.554 43.8088 7.81C44.0728 7.054 44.4508 6.4 44.9428 5.848C45.4348 5.284 46.0408 4.84 46.7608 4.516C47.4808 4.192 48.3028 4.03 49.2268 4.03ZM49.1368 14.452C49.7968 14.452 50.3548 14.344 50.8108 14.128C51.2788 13.9 51.6628 13.594 51.9628 13.21C52.2628 12.814 52.4788 12.352 52.6108 11.824C52.7548 11.296 52.8268 10.732 52.8268 10.132C52.8268 9.484 52.7548 8.896 52.6108 8.368C52.4668 7.84 52.2448 7.384 51.9448 7C51.6448 6.616 51.2608 6.322 50.7928 6.118C50.3368 5.902 49.7968 5.794 49.1728 5.794C48.5368 5.794 47.9908 5.902 47.5348 6.118C47.0908 6.322 46.7248 6.61 46.4368 6.982C46.1608 7.354 45.9568 7.798 45.8248 8.314C45.7048 8.83 45.6448 9.4 45.6448 10.024C45.6448 11.488 45.9448 12.592 46.5448 13.336C47.1448 14.08 48.0088 14.452 49.1368 14.452ZM63.1622 10.6H59.5622V14.2H64.7282V16H57.4922V4.12H64.3682V5.92H59.5622V8.8H63.1622V10.6Z" fill="#124F75"/>
</svg>
